{
	"asset":{
		"generator":"Khronos glTF Blender I/O v4.1.63",
		"version":"2.0"
	},
	"extensionsUsed":[
		"KHR_materials_specular",
		"KHR_materials_transmission"
	],
	"scene":0,
	"scenes":[
		{
			"name":"Scene",
			"nodes":[
				0
			]
		}
	],
	"nodes":[
		{
			"mesh":0,
			"name":"Plane",
			"rotation":[
				0.7071068286895752,
				0,
				0,
				0.7071068286895752
			]
		}
	],
	"materials":[
		{
			"doubleSided":true,
			"extensions":{
				"KHR_materials_specular":{
					"specularFactor":0
				}
			},
			"name":"Material.004",
			"pbrMetallicRoughness":{
				"baseColorFactor":[
					0.4178818464279175,
					0.6866859197616577,
					0.7912983894348145,
					1
				],
				"metallicFactor":0.5,
				"roughnessFactor":0.30000001192092896
			}
		},
		{
			"doubleSided":true,
			"extensions":{
				"KHR_materials_transmission":{
					"transmissionFactor":1
				},
				"KHR_materials_specular":{
					"specularColorFactor":[
						1.600000023841858,
						1.600000023841858,
						1.600000023841858
					]
				}
			},
			"name":"Material.005",
			"pbrMetallicRoughness":{
				"metallicFactor":0.800000011920929,
				"roughnessFactor":0.10000000149011612
			}
		},
		{
			"doubleSided":true,
			"extensions":{
				"KHR_materials_transmission":{
					"transmissionFactor":1
				}
			},
			"name":"Material.006",
			"pbrMetallicRoughness":{
				"baseColorFactor":[
					0,
					0.2973000407218933,
					0.40194183588027954,
					1
				],
				"metallicFactor":0.800000011920929,
				"roughnessFactor":0.1376146823167801
			}
		},
		{
			"doubleSided":true,
			"name":"strap colour",
			"pbrMetallicRoughness":{
				"baseColorFactor":[
					0.4178818464279175,
					0.6866859197616577,
					0.7912983894348145,
					1
				],
				"metallicFactor":0.5,
				"roughnessFactor":0.30000001192092896
			}
		}
	],
	"meshes":[
		{
			"name":"Plane",
			"primitives":[
				{
					"attributes":{
						"POSITION":0,
						"NORMAL":1,
						"TEXCOORD_0":2
					},
					"indices":3,
					"material":0
				},
				{
					"attributes":{
						"POSITION":4,
						"NORMAL":5,
						"TEXCOORD_0":6
					},
					"indices":7,
					"material":1
				},
				{
					"attributes":{
						"POSITION":8,
						"NORMAL":9,
						"TEXCOORD_0":10
					},
					"indices":11,
					"material":2
				},
				{
					"attributes":{
						"POSITION":12,
						"NORMAL":13,
						"TEXCOORD_0":14
					},
					"indices":15,
					"material":3
				}
			]
		}
	],
	"accessors":[
		{
			"bufferView":0,
			"componentType":5126,
			"count":1609,
			"max":[
				1.2135610580444336,
				1.5051380395889282,
				0.4719330072402954
			],
			"min":[
				-0.9842389822006226,
				-1.1833549737930298,
				-0.5761240124702454
			],
			"type":"VEC3"
		},
		{
			"bufferView":1,
			"componentType":5126,
			"count":1609,
			"type":"VEC3"
		},
		{
			"bufferView":2,
			"componentType":5126,
			"count":1609,
			"type":"VEC2"
		},
		{
			"bufferView":3,
			"componentType":5123,
			"count":9192,
			"type":"SCALAR"
		},
		{
			"bufferView":4,
			"componentType":5126,
			"count":321,
			"max":[
				1.2103190422058105,
				1.8186299800872803,
				0.4719330072402954
			],
			"min":[
				-0.9809799790382385,
				-0.039073001593351364,
				-0.5761240124702454
			],
			"type":"VEC3"
		},
		{
			"bufferView":5,
			"componentType":5126,
			"count":321,
			"type":"VEC3"
		},
		{
			"bufferView":6,
			"componentType":5126,
			"count":321,
			"type":"VEC2"
		},
		{
			"bufferView":7,
			"componentType":5123,
			"count":1632,
			"type":"SCALAR"
		},
		{
			"bufferView":8,
			"componentType":5126,
			"count":193,
			"max":[
				1.0788060426712036,
				1.1028820276260376,
				0.3208189904689789
			],
			"min":[
				-0.8494669795036316,
				0.5715489983558655,
				-0.42501100897789
			],
			"type":"VEC3"
		},
		{
			"bufferView":9,
			"componentType":5126,
			"count":193,
			"type":"VEC3"
		},
		{
			"bufferView":10,
			"componentType":5126,
			"count":193,
			"type":"VEC2"
		},
		{
			"bufferView":11,
			"componentType":5123,
			"count":1056,
			"type":"SCALAR"
		},
		{
			"bufferView":12,
			"componentType":5126,
			"count":373,
			"max":[
				0.3897880017757416,
				0.7490100264549255,
				-0.1259949952363968
			],
			"min":[
				-0.16926099359989166,
				-1.1847050189971924,
				-1.165824055671692
			],
			"type":"VEC3"
		},
		{
			"bufferView":13,
			"componentType":5126,
			"count":373,
			"type":"VEC3"
		},
		{
			"bufferView":14,
			"componentType":5126,
			"count":373,
			"type":"VEC2"
		},
		{
			"bufferView":15,
			"componentType":5123,
			"count":2136,
			"type":"SCALAR"
		}
	],
	"bufferViews":[
		{
			"buffer":0,
			"byteLength":19308,
			"byteOffset":0,
			"target":34962
		},
		{
			"buffer":0,
			"byteLength":19308,
			"byteOffset":19308,
			"target":34962
		},
		{
			"buffer":0,
			"byteLength":12872,
			"byteOffset":38616,
			"target":34962
		},
		{
			"buffer":0,
			"byteLength":18384,
			"byteOffset":51488,
			"target":34963
		},
		{
			"buffer":0,
			"byteLength":3852,
			"byteOffset":69872,
			"target":34962
		},
		{
			"buffer":0,
			"byteLength":3852,
			"byteOffset":73724,
			"target":34962
		},
		{
			"buffer":0,
			"byteLength":2568,
			"byteOffset":77576,
			"target":34962
		},
		{
			"buffer":0,
			"byteLength":3264,
			"byteOffset":80144,
			"target":34963
		},
		{
			"buffer":0,
			"byteLength":2316,
			"byteOffset":83408,
			"target":34962
		},
		{
			"buffer":0,
			"byteLength":2316,
			"byteOffset":85724,
			"target":34962
		},
		{
			"buffer":0,
			"byteLength":1544,
			"byteOffset":88040,
			"target":34962
		},
		{
			"buffer":0,
			"byteLength":2112,
			"byteOffset":89584,
			"target":34963
		},
		{
			"buffer":0,
			"byteLength":4476,
			"byteOffset":91696,
			"target":34962
		},
		{
			"buffer":0,
			"byteLength":4476,
			"byteOffset":96172,
			"target":34962
		},
		{
			"buffer":0,
			"byteLength":2984,
			"byteOffset":100648,
			"target":34962
		},
		{
			"buffer":0,
			"byteLength":4272,
			"byteOffset":103632,
			"target":34963
		}
	],
	"buffers":[
		{
			"byteLength":107904,
			"uri":"data:application/octet-stream;base64,"
		}
	]
}
